#N canvas 541 144 846 638 10;
#X declare -path ./pd-abstractions;
#X obj 477 295 catch~ mix_l;
#X obj 522 318 catch~ mix_r;
#X obj 468 536 dac~;
#X obj -108 52 mrpeach/unpackOSC;
#X obj -126 405 s file_name;
#X obj -108 98 mrpeach/pipelist;
#X obj -108 289 t s b;
#X obj -81 311 f 0;
#X obj -51 311 + 1;
#X obj -81 333 mod 16;
#X obj -126 357 pack s f;
#X msg -126 380 \$2 \$1;
#X obj 477 480 *~;
#X obj 537 443 line~;
#X msg 537 416 \$1 100;
#X obj 540 365 hsl 128 15 0 127 0 0 empty empty empty -2 -8 0 10 -262144
-1 -1 0 1;
#X obj 537 392 dbtorms;
#X obj 288 571 mrpeach/udpsend;
#X obj 309 296 r noise;
#X obj 362 296 r centroid;
#X obj 432 296 r bpm;
#X obj 516 67 bng 50 250 50 0 empty empty empty 17 7 0 10 -262144 -1
-1;
#N canvas 246 253 617 413 tap 0;
#X obj 195 139 timer;
#X floatatom 193 160 5 0 0 0 - - -;
#X obj 99 147 f;
#X obj 125 147 + 1;
#X floatatom 97 176 5 0 0 0 - - -;
#X obj 400 34 t b b b b;
#X msg 167 117 0;
#X obj 422 215 list;
#X obj 109 271 list;
#X obj 143 309 sum;
#X obj 109 290 list split 1;
#X obj 143 326 / 3;
#X obj 164 92 t b b;
#X obj 292 168 list prepend;
#X obj 164 69 delay 2000;
#X text 228 66 time to reset;
#X obj 401 2 inlet;
#X obj 143 345 outlet;
#X obj 109 211 sel 3 0;
#X obj 297 306 outlet;
#X msg 297 276 1;
#X msg 217 287 0;
#X obj 109 235 t b b b;
#X connect 0 0 1 0;
#X connect 0 0 13 0;
#X connect 2 0 3 0;
#X connect 2 0 4 0;
#X connect 2 0 18 0;
#X connect 3 0 2 1;
#X connect 5 0 14 0;
#X connect 5 1 2 0;
#X connect 5 2 0 0;
#X connect 5 3 0 1;
#X connect 6 0 2 1;
#X connect 7 0 13 1;
#X connect 8 0 10 0;
#X connect 9 0 11 0;
#X connect 10 1 9 0;
#X connect 11 0 17 0;
#X connect 12 0 6 0;
#X connect 12 1 13 1;
#X connect 13 0 7 0;
#X connect 13 0 8 1;
#X connect 14 0 12 0;
#X connect 16 0 5 0;
#X connect 18 0 22 0;
#X connect 18 1 20 0;
#X connect 20 0 19 0;
#X connect 21 0 19 0;
#X connect 22 0 8 0;
#X connect 22 1 21 0;
#X restore 516 121 pd tap;
#X obj 516 234 s bpm;
#X obj 516 187 /;
#X obj 504 144 t b f;
#X msg 504 164 60000;
#X obj 549 143 s analyze;
#X floatatom 288 594 1 0 0 0 - - -;
#X obj 228 23 ctlin 26;
#X obj 228 74 / 127;
#X msg 288 461 send /data \$1 \$2 \$3;
#X obj 309 409 pack f f f;
#X obj 362 320 t b f;
#X obj 432 319 t b f;
#X obj 537 340 ctlin 29;
#X obj 516 212 int;
#X obj 231 49 hsl 128 15 0 127 0 0 empty empty empty -2 -8 0 10 -262144
-1 -1 0 1;
#X obj 228 100 s noise;
#X obj 367 74 / 127;
#X obj 370 49 hsl 128 15 0 127 0 0 empty empty empty -2 -8 0 10 -262144
-1 -1 0 1;
#X obj 367 23 ctlin 27;
#X obj 367 100 s centroid;
#X obj 516 45 t b;
#X obj 516 22 ctlin 32;
#X obj -97 223 openpanel;
#X obj -97 201 bng 15 250 50 0 empty empty empty 17 7 0 10 -262144
-1 -1;
#X obj -97 266 symbol;
#X obj -89 244 bng 15 250 50 0 empty empty empty 17 7 0 10 -262144
-1 -1;
#X obj 43 29 loadbang;
#X msg 43 53 \; pd dsp 1;
#X obj 248 319 t b;
#X obj 248 353 bng 50 250 50 0 empty empty empty 17 7 0 10 -262144
-1 -1;
#X obj 248 296 ctlin 33;
#X obj 288 435 list;
#X msg 314 511 connect 1.1.1.2 4444;
#X msg 326 541 disconnect;
#X obj -108 126 mrpeach/routeOSC /file;
#X obj 288 482 mrpeach/packOSC;
#X obj -108 29 mrpeach/udpreceive 4445;
#X obj -39 240 print;
#X obj -126 434 mhdplay 1 64;
#X obj -108 149 tosymbol;
#X obj 477 503 *~ 0.3;
#X obj -126 534 mhdplay 6 69;
#X obj -126 454 mhdplay 2 65;
#X obj -126 474 mhdplay 3 66;
#X obj -126 494 mhdplay 4 67;
#X obj -126 514 mhdplay 5 68;
#X obj -126 553 mhdplay 7 70;
#X obj -126 572 mhdplay 8 71;
#X obj -26 433 mhdplay 9 72;
#X obj -26 453 mhdplay 10 73;
#X obj -26 473 mhdplay 11 74;
#X obj -26 493 mhdplay 12 75;
#X obj -26 513 mhdplay 13 76;
#X obj -26 533 mhdplay 14 77;
#X obj -26 552 mhdplay 15 78;
#X obj -26 571 mhdplay 0 79;
#X obj -97 77 print file;
#X obj 74 296 metro 468.7;
#X obj 74 320 bng 100 250 50 0 empty empty empty 17 7 0 10 -262144
-1 -1;
#X obj 74 277 tgl 15 0 empty empty empty 17 7 0 10 -262144 -1 -1 0
1;
#X obj -46 372 nbx 2 48 -1e+37 1e+37 0 0 empty empty empty 0 -8 0 48
-262144 -1 -1 0 256;
#N canvas 602 370 590 360 obsolete 0;
#X obj 67 36 r bpm;
#X obj 90 197 metro;
#X obj 60 77 60000;
#X obj 78 103 /;
#X obj 70 56 t b f;
#X obj 126 156 / 4;
#X obj 76 177 tgl 15 0 empty empty empty 17 7 0 10 -262144 -1 -1 0
1;
#X obj 76 157 delay;
#X obj 90 216 s sixteenth;
#X obj 78 123 t b f f b;
#X msg 170 152 0;
#X connect 0 0 4 0;
#X connect 1 0 8 0;
#X connect 2 0 3 0;
#X connect 3 0 9 0;
#X connect 4 0 2 0;
#X connect 4 1 3 1;
#X connect 5 0 1 1;
#X connect 6 0 1 0;
#X connect 7 0 6 0;
#X connect 9 0 7 0;
#X connect 9 1 7 1;
#X connect 9 2 5 0;
#X connect 9 3 10 0;
#X connect 10 0 6 0;
#X restore -126 601 pd obsolete;
#X text -109 6 PAD BANK D (akai);
#X obj -49 149 declare -path ./pd-abstractions;
#X obj -108 176 makefilename ./MHD-short-loops/%s;
#X connect 0 0 12 0;
#X connect 3 0 5 0;
#X connect 3 0 79 0;
#X connect 3 1 5 1;
#X connect 5 0 57 0;
#X connect 6 0 10 0;
#X connect 6 1 7 0;
#X connect 7 0 8 0;
#X connect 7 0 9 0;
#X connect 8 0 7 1;
#X connect 9 0 10 1;
#X connect 9 0 83 0;
#X connect 10 0 11 0;
#X connect 11 0 4 0;
#X connect 12 0 63 0;
#X connect 13 0 12 1;
#X connect 14 0 13 0;
#X connect 15 0 16 0;
#X connect 16 0 14 0;
#X connect 17 0 28 0;
#X connect 18 0 32 0;
#X connect 19 0 33 0;
#X connect 20 0 34 0;
#X connect 21 0 22 0;
#X connect 22 0 25 0;
#X connect 22 1 27 0;
#X connect 24 0 36 0;
#X connect 25 0 26 0;
#X connect 25 1 24 1;
#X connect 26 0 24 0;
#X connect 29 0 37 0;
#X connect 30 0 38 0;
#X connect 31 0 58 0;
#X connect 32 0 54 1;
#X connect 33 0 32 0;
#X connect 33 1 32 1;
#X connect 34 0 32 0;
#X connect 34 1 32 2;
#X connect 35 0 15 0;
#X connect 36 0 23 0;
#X connect 37 0 30 0;
#X connect 39 0 42 0;
#X connect 40 0 39 0;
#X connect 41 0 40 0;
#X connect 43 0 21 0;
#X connect 44 0 43 0;
#X connect 45 0 47 0;
#X connect 45 0 60 0;
#X connect 46 0 45 0;
#X connect 47 0 6 0;
#X connect 48 0 47 0;
#X connect 49 0 50 0;
#X connect 51 0 52 0;
#X connect 52 0 54 0;
#X connect 53 0 51 0;
#X connect 54 0 31 0;
#X connect 55 0 17 0;
#X connect 56 0 17 0;
#X connect 57 0 62 0;
#X connect 58 0 17 0;
#X connect 59 0 3 0;
#X connect 62 0 87 0;
#X connect 63 0 2 0;
#X connect 63 0 2 1;
#X connect 80 0 81 0;
#X connect 82 0 80 0;
#X connect 87 0 6 0;
