#N canvas 44 111 450 300 10;
#X obj 56 44 inlet;
#X text 53 25 input a note;
#X obj 248 43 inlet;
#X text 210 23 input a 12 note histogram;
#X obj 54 155 list split;
#X obj 56 130 list;
#X obj 56 108 t b f;
#X obj 82 180 list split 1;
#X obj 155 248 outlet;
#X obj 56 73 % 12;
#X obj 248 158 sum;
#X obj 248 98 t a a;
#X obj 156 227 /;
#X connect 0 0 9 0;
#X connect 2 0 11 0;
#X connect 4 1 7 0;
#X connect 5 0 4 0;
#X connect 6 0 5 0;
#X connect 6 1 4 1;
#X connect 7 0 12 0;
#X connect 9 0 6 0;
#X connect 10 0 12 1;
#X connect 11 0 5 1;
#X connect 11 1 10 0;
#X connect 12 0 8 0;
