#N canvas 1 87 522 453 10;
#X obj 53 11 inlet;
#X text 113 26 input a list;
#X obj 111 143 list split 1;
#X obj 165 172 list;
#X obj 111 173 t b b f;
#X obj 100 348 outlet;
#X msg 412 157 bang;
#X obj 177 288 f;
#X obj 150 287 +;
#X msg 412 271 0;
#X text 201 286 sum all results;
#X obj 100 321 f;
#X text 240 47 count non zero elements;
#X obj 93 76 t b a b;
#X obj 150 206 != 0;
#X text 187 205 is it different from 0 ?;
#X connect 0 0 13 0;
#X connect 2 0 4 0;
#X connect 2 1 3 1;
#X connect 3 0 2 0;
#X connect 4 0 3 0;
#X connect 4 2 14 0;
#X connect 6 0 9 0;
#X connect 7 0 8 1;
#X connect 8 0 7 0;
#X connect 8 0 11 1;
#X connect 9 0 8 1;
#X connect 11 0 5 0;
#X connect 13 0 11 0;
#X connect 13 1 2 0;
#X connect 13 2 6 0;
#X connect 14 0 8 0;
