#N canvas 35 152 1121 617 10;
#X text 682 30 el paper orginal de los profiles está aquí:;
#X text 684 45 http://isites.harvard.edu/fs/docs/icb.topic133047.files/Krumhansl_and_Kessler_1982.pdf
;
#X text 688 68 página 343;
#X text 684 92 aca mejor explicado por la misma Krumhansel;
#X text 684 108 http://music.psych.cornell.edu/articles/reviews/A_theory_of_tonal_hierarchies_in_music.pdf
;
#X text 685 132 página 74;
#X text 684 148 los valores en la página 56;
#X text 238 184 major profile;
#X msg 186 220 6.35 2.23 3.48 2.33 4.38 4.09 2.52 5.19 2.39 3.66 2.29
2.88;
#X text 543 177 minor profile;
#X obj 186 186 loadbang;
#X obj 545 160 loadbang;
#X obj 219 43 inlet;
#X text 255 42 input a 12 note histogram;
#X obj 219 63 t a a;
#X obj 93 298 list split 1;
#X obj 452 303 list split 1;
#X obj 266 419 outlet;
#X obj 93 275 sort -1;
#X obj 452 276 sort -1;
#X obj 452 255 list-convolution;
#X msg 545 193 6.33 2.68 3.52 5.38 2.6 3.53 2.54 4.75 3.98 2.69 3.34
3.17;
#X obj 93 253 list-convolution;
#X obj 266 364 -;
#X obj 266 385 > 0;
#X text 233 438 output 1 if it is major 0 if it is minor;
#X obj 215 292 list split 1;
#X obj 555 293 list split 1;
#X obj 610 442 spigot;
#X obj 643 423 == 0;
#X obj 610 406 t b f;
#X obj 495 386 t f f f;
#X obj 567 531 outlet;
#X obj 514 459 spigot;
#X obj 514 412 t b f;
#X obj 547 440 == 1;
#X floatatom 310 318 5 0 0 0 - - -;
#X obj 507 435 f;
#X obj 610 421 f;
#X obj 566 492 + 1;
#X obj 567 511 % 12;
#X text 548 547 output the key (0 for C ...);
#X floatatom 644 505 5 0 0 0 - - -;
#X connect 8 0 22 1;
#X connect 10 0 8 0;
#X connect 11 0 21 0;
#X connect 12 0 14 0;
#X connect 14 0 22 0;
#X connect 14 1 20 0;
#X connect 15 0 23 0;
#X connect 16 0 23 1;
#X connect 18 0 15 0;
#X connect 18 1 26 0;
#X connect 19 0 16 0;
#X connect 19 1 27 0;
#X connect 20 0 19 0;
#X connect 21 0 20 1;
#X connect 22 0 18 0;
#X connect 23 0 24 0;
#X connect 24 0 17 0;
#X connect 24 0 31 0;
#X connect 26 0 36 0;
#X connect 26 0 37 1;
#X connect 27 0 38 1;
#X connect 28 0 39 0;
#X connect 29 0 28 1;
#X connect 30 0 38 0;
#X connect 30 1 29 0;
#X connect 31 1 34 0;
#X connect 31 2 30 0;
#X connect 33 0 39 0;
#X connect 34 0 37 0;
#X connect 34 1 35 0;
#X connect 35 0 33 1;
#X connect 37 0 33 0;
#X connect 38 0 28 0;
#X connect 39 0 40 0;
#X connect 40 0 32 0;
#X connect 40 0 42 0;
