#N canvas 524 107 670 515 10;
#X obj 28 314 detect-tonality;
#X obj 28 10 notein;
#X obj 55 100 list split 1;
#X obj 55 120 % 12;
#N canvas 0 0 450 300 (subpatch) 0;
#X array histogram 12 float 1;
#A 0 7 0 0 7 0 1 0 5 0 0 0 0;
#X coords 0 10 11 0 200 140 1 0 0;
#X restore 163 77 graph;
#X floatatom 28 379 5 0 0 0 - - -;
#X obj 28 248 tabdump histogram;
#N canvas 694 463 450 300 list2histogram 0;
#X obj 36 22 inlet;
#X obj 55 190 tabwrite histogram;
#X obj 36 95 t b f f;
#X obj 101 93 list;
#X msg 158 62 \; histogram const 0;
#X obj 36 67 list split 1;
#X obj 36 45 t a b;
#X obj 55 131 tabread histogram;
#X obj 61 158 + 1;
#X connect 0 0 6 0;
#X connect 2 0 3 0;
#X connect 2 1 7 0;
#X connect 2 2 1 1;
#X connect 3 0 5 0;
#X connect 5 0 2 0;
#X connect 5 1 3 1;
#X connect 6 0 5 0;
#X connect 6 1 4 0;
#X connect 7 0 8 0;
#X connect 8 0 1 0;
#X restore 55 160 pd list2histogram;
#X obj 28 80 t b f;
#X obj 28 32 stripnote;
#X obj 55 139 list-push 20;
#X text 66 378 1 = major 0= minor;
#X text 372 127 write a histogram with the last n notes played.;
#X text 135 240 everytime we receive a new note we dump the histogram
to the analyzer;
#X text 127 299 we get the profile from the histogram and compare it
consistently with the Krumhansel profiles to detect if the modes is
major or minor.;
#X floatatom 115 355 5 0 0 0 - - -;
#X text 150 356 key;
#X connect 0 0 5 0;
#X connect 0 1 15 0;
#X connect 1 0 9 0;
#X connect 1 1 9 1;
#X connect 2 0 3 0;
#X connect 3 0 10 0;
#X connect 6 0 0 0;
#X connect 8 0 6 0;
#X connect 8 1 2 0;
#X connect 9 0 8 0;
#X connect 10 0 7 0;
