#N canvas 453 115 748 435 10;
#N canvas 594 233 450 437 listwrap 0;
#X obj 70 43 inlet;
#X obj 112 101 list length;
#X obj 70 134 f;
#X obj 71 154 until;
#X obj 113 224 list;
#X obj 112 124 t f f;
#X obj 113 276 list split;
#X obj 170 169 f;
#X obj 201 166 + 1;
#X obj 70 73 t b a a b;
#X msg 203 111 0;
#X obj 71 176 t b b;
#X obj 170 229 -;
#X obj 170 249 * -1;
#X obj 113 297 list prepend;
#X obj 113 317 outlet;
#X text 127 37 receive a list and export all wrapped positions;
#X text 104 336 output list;
#X obj 302 296 outlet;
#X text 293 315 output shift size;
#X obj 170 192 t f f;
#X connect 0 0 9 0;
#X connect 1 0 5 0;
#X connect 2 0 3 0;
#X connect 3 0 11 0;
#X connect 4 0 6 0;
#X connect 5 0 2 1;
#X connect 5 1 12 1;
#X connect 6 0 14 0;
#X connect 6 1 14 1;
#X connect 7 0 8 0;
#X connect 7 0 20 0;
#X connect 8 0 7 1;
#X connect 9 0 2 0;
#X connect 9 1 4 1;
#X connect 9 2 1 0;
#X connect 9 3 10 0;
#X connect 10 0 7 1;
#X connect 11 0 4 0;
#X connect 11 1 7 0;
#X connect 12 0 13 0;
#X connect 13 0 6 1;
#X connect 14 0 15 0;
#X connect 20 0 12 0;
#X connect 20 1 18 0;
#X restore 142 167 pd listwrap;
#X obj 119 312 outlet;
#X text 318 63 multiply one list with all shifted versions fo the otherone.
the output is the a vector with the convolution with every shift (the
index is the shift).;
#N canvas 498 224 450 402 oneconvolution 0;
#X obj 91 123 list split 1;
#X obj 195 123 list split 1;
#X obj 150 213 *;
#X obj 145 152 list;
#X obj 209 157 list;
#X obj 91 153 t b b f;
#X obj 75 32 inlet;
#X obj 203 34 inlet;
#X obj 74 328 outlet;
#X obj 195 101 list;
#X obj 74 56 t b a b b;
#X msg 366 120 bang;
#X text 174 209 multiply one list with the other;
#X obj 177 257 f;
#X obj 150 256 +;
#X msg 392 216 0;
#X text 201 255 sum all results;
#X obj 74 307 f;
#X connect 0 0 5 0;
#X connect 0 1 3 1;
#X connect 1 0 2 1;
#X connect 1 1 4 1;
#X connect 2 0 14 0;
#X connect 3 0 0 0;
#X connect 4 0 1 0;
#X connect 5 0 3 0;
#X connect 5 1 4 0;
#X connect 5 2 2 0;
#X connect 6 0 10 0;
#X connect 7 0 9 1;
#X connect 9 0 1 0;
#X connect 10 0 17 0;
#X connect 10 1 0 0;
#X connect 10 2 9 0;
#X connect 10 3 11 0;
#X connect 11 0 15 0;
#X connect 13 0 14 1;
#X connect 14 0 13 0;
#X connect 14 0 17 1;
#X connect 15 0 14 1;
#X connect 17 0 8 0;
#X restore 142 219 pd oneconvolution;
#X obj 142 259 list;
#X obj 177 265 list;
#X obj 119 291 list;
#X obj 118 111 t b a b;
#X msg 365 182 bang;
#X obj 118 51 inlet listA;
#X obj 241 173 inlet listB;
#X connect 0 0 3 0;
#X connect 3 0 4 0;
#X connect 4 0 5 0;
#X connect 4 0 6 1;
#X connect 5 0 4 1;
#X connect 6 0 1 0;
#X connect 7 0 6 0;
#X connect 7 1 0 0;
#X connect 7 2 8 0;
#X connect 8 0 4 1;
#X connect 9 0 7 0;
#X connect 10 0 3 1;
