#N canvas 1 102 700 337 10;
#X obj 66 35 inlet;
#X obj 286 32 inlet;
#X text 56 14 input a new note;
#X text 222 14 input the "memory" histogram;
#X obj 83 194 detect-tonality;
#X obj 274 194 stddev;
#X obj 432 194 countnonzero;
#X obj 83 142 t a a a a;
#X obj 575 194 commonness;
#X obj 132 253 outlet mode;
#X obj 204 253 outlet key;
#X obj 270 253 outlet scaledefinition;
#X obj 408 253 outlet pcs;
#X obj 474 253 outlet commonness;
#X connect 0 0 8 0;
#X connect 1 0 7 0;
#X connect 4 0 9 0;
#X connect 4 1 10 0;
#X connect 5 0 11 0;
#X connect 6 0 12 0;
#X connect 7 0 4 0;
#X connect 7 1 5 0;
#X connect 7 2 6 0;
#X connect 7 3 8 1;
#X connect 8 0 13 0;
