#N canvas 1 166 1065 515 10;
#X obj 150 27 notein;
#N canvas 0 0 450 300 (subpatch) 0;
#X array memory-histogram 12 float 1;
#A 0 13 0 1 4 0 0 0 2 0 0 0 0;
#X coords 0 20 11 0 200 140 1 0 0;
#X restore 345 75 graph;
#X obj 150 49 stripnote;
#X text 322 44 write a histogram with the last n notes played.;
#X text 273 398 these are all questions that I can ask to the passage
that has been analyzed. The size of the passage has to do with human
memory: the new events have a relation with what i have just heard
\, but how far back can/must/do I remember?;
#X obj 150 276 melodic-analysis;
#X floatatom 150 318 5 0 0 0 - - -;
#X floatatom 201 318 5 0 0 0 - - -;
#X text 236 319 key;
#X floatatom 311 317 5 0 0 0 - - -;
#X floatatom 463 320 5 0 0 0 - - -;
#X text 292 332 how hierarchic is;
#X text 290 344 the analyzed passage?;
#X text 274 356 i.e. how defined is my scale;
#X text 453 347 how many im I using?;
#X text 123 361 being played?;
#X text 119 348 what tonality is it;
#X text 119 334 1 = M 0= m;
#X floatatom 614 322 5 0 0 0 - - -;
#X text 612 336 how common is the;
#X text 611 348 new note im playing?;
#X text 451 335 of all 12 possible notes;
#X text 101 255 new note;
#X text 250 256 histogram of memory;
#X obj 150 88 t f f;
#X msg 297 158 bang;
#X msg 19 62 0;
#X obj 267 195 memory 20;
#X msg 75 62 3;
#X msg 103 62 7;
#X msg 47 62 2;
#X connect 0 0 2 0;
#X connect 0 1 2 1;
#X connect 2 0 24 0;
#X connect 5 0 6 0;
#X connect 5 1 7 0;
#X connect 5 2 9 0;
#X connect 5 3 10 0;
#X connect 5 4 18 0;
#X connect 24 0 5 0;
#X connect 24 1 27 0;
#X connect 25 0 27 0;
#X connect 26 0 24 0;
#X connect 27 0 5 1;
#X connect 28 0 24 0;
#X connect 29 0 24 0;
#X connect 30 0 24 0;
