#N canvas 185 23 577 473 10;
#X obj 94 404 throw~ mix_l;
#X obj 185 301 spigot 1;
#X obj 278 -6 r file_name;
#X obj 28 -4 notein;
#X obj 28 62 != 0;
#X obj 28 19 pack f f;
#X obj 28 41 route \$2;
#X obj 28 133 moses 1;
#X msg 106 276 open \$1;
#X obj 67 155 t f f b;
#X obj 28 189 t f f;
#X obj 185 323 t b b;
#X msg 185 346 1;
#X obj 28 87 t f f;
#X obj 277 40 route \$1;
#X obj 198 155 list prepend 0;
#X obj 198 179 route 0 1;
#X obj 324 362 s file_name;
#X obj 278 17 t l l;
#X obj 369 271 + 1;
#X obj 369 293 mod 16;
#X obj 369 249 unpack f;
#X obj 324 317 pack s f;
#X msg 324 340 \$2 \$1;
#X obj 198 205 tosymbol;
#X obj 94 370 *~ 0.1;
#X obj 106 254 symbol \$1;
#X obj 94 300 readsf~ 1;
#X connect 1 0 11 0;
#X connect 2 0 18 0;
#X connect 3 0 5 0;
#X connect 3 1 5 1;
#X connect 4 0 13 0;
#X connect 5 0 6 0;
#X connect 6 0 4 0;
#X connect 7 0 10 0;
#X connect 7 1 9 0;
#X connect 8 0 27 0;
#X connect 9 0 27 0;
#X connect 9 1 1 1;
#X connect 9 2 26 0;
#X connect 10 0 27 0;
#X connect 10 1 1 1;
#X connect 11 0 12 0;
#X connect 11 1 26 0;
#X connect 12 0 27 0;
#X connect 13 0 7 0;
#X connect 13 1 15 1;
#X connect 14 0 15 0;
#X connect 15 0 16 0;
#X connect 16 0 24 0;
#X connect 16 1 22 0;
#X connect 18 0 14 0;
#X connect 18 1 21 0;
#X connect 19 0 20 0;
#X connect 20 0 22 1;
#X connect 21 0 19 0;
#X connect 22 0 23 0;
#X connect 23 0 17 0;
#X connect 24 0 26 1;
#X connect 25 0 0 0;
#X connect 26 0 8 0;
#X connect 27 0 25 0;
#X connect 27 1 1 0;
