#N canvas 1 97 636 442 10;
#X obj 63 20 inlet;
#X text 103 16 input a list;
#X obj 101 133 list split 1;
#X obj 155 162 list;
#X obj 101 163 t b b f;
#X obj 303 396 outlet;
#X msg 402 147 bang;
#X obj 168 278 f;
#X obj 141 277 +;
#X msg 402 261 0;
#X text 192 276 sum all results;
#X obj 84 317 f;
#X obj 227 136 sum;
#X obj 84 66 t b a a a b;
#X obj 287 144 list length;
#X obj 227 164 /;
#X text 252 164 average;
#X obj 141 196 -;
#X obj 141 239 *;
#X obj 141 216 t f f;
#X text 175 195 diference;
#X text 173 237 pow 2;
#X text 230 37 standard deviation of a list;
#X obj 84 339 sqrt;
#X text 112 337 take the square root;
#X obj 83 396 outlet stdev normlized;
#X obj 84 377 /;
#X obj 84 358 t f f;
#X connect 0 0 13 0;
#X connect 2 0 4 0;
#X connect 2 1 3 1;
#X connect 3 0 2 0;
#X connect 4 0 3 0;
#X connect 4 2 17 0;
#X connect 6 0 9 0;
#X connect 7 0 8 1;
#X connect 8 0 7 0;
#X connect 8 0 11 1;
#X connect 9 0 8 1;
#X connect 11 0 23 0;
#X connect 12 0 15 0;
#X connect 13 0 11 0;
#X connect 13 1 2 0;
#X connect 13 2 12 0;
#X connect 13 3 14 0;
#X connect 13 4 6 0;
#X connect 14 0 15 1;
#X connect 14 0 26 1;
#X connect 15 0 17 1;
#X connect 17 0 19 0;
#X connect 18 0 8 0;
#X connect 19 0 18 0;
#X connect 19 1 18 1;
#X connect 23 0 27 0;
#X connect 26 0 25 0;
#X connect 27 0 26 0;
#X connect 27 1 5 0;
